<?xml version="1.0" encoding="UTF-8" standalone="no"?>
<!-- Created with Inkscape (http://www.inkscape.org/) -->

<svg xmlns:dc="http://purl.org/dc/elements/1.1/" xmlns:cc="http://creativecommons.org/ns#" xmlns:rdf="http://www.w3.org/1999/02/22-rdf-syntax-ns#" xmlns:svg="http://www.w3.org/2000/svg" xmlns="http://www.w3.org/2000/svg" xmlns:sodipodi="http://sodipodi.sourceforge.net/DTD/sodipodi-0.dtd" xmlns:inkscape="http://www.inkscape.org/namespaces/inkscape" width="148mm" height="22mm" viewBox="0 0 148 22" version="1.1" id="svg8" inkscape:version="0.92.3 (2405546, 2018-03-11)" sodipodi:docname="testerum-logo-path-instead-of-font.svg" inkscape:export-filename="/media/cvmocanu/data/Desktop/testerum-logo.svg.png" inkscape:export-xdpi="501" inkscape:export-ydpi="501">
    <defs id="defs2" />
    <sodipodi:namedview id="base" pagecolor="#ffffff" bordercolor="#666666" borderopacity="1.0" inkscape:pageopacity="0.0" inkscape:pageshadow="2" inkscape:zoom="1.4" inkscape:cx="268.06114" inkscape:cy="84.153752" inkscape:document-units="mm" inkscape:current-layer="layer1" showgrid="false" inkscape:window-width="2560" inkscape:window-height="1390" inkscape:window-x="1920" inkscape:window-y="0" inkscape:window-maximized="1" inkscape:snap-text-baseline="false" height="40mm" inkscape:pagecheckerboard="false" showborder="true" borderlayer="false" inkscape:showpageshadow="true" />
    <metadata id="metadata5">
        <rdf:RDF>
            <cc:Work rdf:about="">
                <dc:format>image/svg+xml</dc:format>
                <dc:type rdf:resource="http://purl.org/dc/dcmitype/StillImage" />
                <dc:title></dc:title>
            </cc:Work>
        </rdf:RDF>
    </metadata>
    <g inkscape:label="Layer 1" inkscape:groupmode="layer" id="layer1" style="display:inline" transform="translate(0,-275)">
        <flowRoot xml:space="preserve" id="flowRoot3825" style="font-style:normal;font-weight:normal;font-size:40px;line-height:1.25;font-family:sans-serif;letter-spacing:0px;word-spacing:0px;fill:#000000;fill-opacity:1;stroke:none" transform="scale(0.26458333)"><flowRegion id="flowRegion3827"><rect id="rect3829" width="28.571428" height="120" x="380" y="411.09113" /></flowRegion><flowPara id="flowPara3831" /></flowRoot>        <g aria-label="«" style="font-style:normal;font-variant:normal;font-weight:bold;font-stretch:normal;font-size:42.58380508px;line-height:1.25;font-family:FreeMono;-inkscape-font-specification:'FreeMono, Bold';font-variant-ligatures:normal;font-variant-caps:normal;font-variant-numeric:normal;font-feature-settings:normal;text-align:start;letter-spacing:0px;word-spacing:0px;writing-mode:lr-tb;text-anchor:start;display:inline;fill:#ff9800;fill-opacity:1;stroke:none;stroke-width:0.26458332" id="text3859">
            <path d="m 8.1957209,286.41992 6.4301541,6.00431 q 0.681341,0.63876 0.681341,1.14977 0,0.511 -0.425838,0.89426 -0.425838,0.38325 -0.979427,0.38325 -0.468422,0 -1.192347,-0.55359 l -10.5607834,-7.878 10.5607834,-7.83542 q 0.723925,-0.55359 1.234931,-0.55359 0.553589,0 0.936843,0.38325 0.425838,0.38326 0.425838,0.89426 0,0.46842 -0.681341,1.14976 z m 9.7516911,0 6.430155,6.00431 q 0.681341,0.63876 0.681341,1.14977 0,0.511 -0.425838,0.89426 -0.425838,0.38325 -0.979428,0.38325 -0.468422,0 -1.192346,-0.55359 l -10.560784,-7.878 10.560784,-7.83542 q 0.723924,-0.55359 1.23493,-0.55359 0.553589,0 0.936844,0.38325 0.425838,0.38326 0.425838,0.89426 0,0.46842 -0.681341,1.14976 z" style="font-style:normal;font-variant:normal;font-weight:bold;font-stretch:normal;font-size:42.58380508px;font-family:FreeMono;-inkscape-font-specification:'FreeMono, Bold';font-variant-ligatures:normal;font-variant-caps:normal;font-variant-numeric:normal;font-feature-settings:normal;text-align:start;writing-mode:lr-tb;text-anchor:start;stroke-width:0.26458332" id="path828" />
        </g>
        <g aria-label="Testerum" style="font-style:normal;font-variant:normal;font-weight:normal;font-stretch:normal;font-size:22.93055534px;line-height:1.25;font-family:Righteous;-inkscape-font-specification:'Righteous, Normal';font-variant-ligatures:normal;font-variant-caps:normal;font-variant-numeric:normal;font-feature-settings:normal;text-align:start;letter-spacing:0px;word-spacing:0px;writing-mode:lr-tb;text-anchor:start;display:inline;fill:#484848;fill-opacity:1;stroke:none;stroke-width:0.26458332" id="text3871">
            <path d="M 33.801375,294.66705 H 30.599159 V 281.8246 h -4.825718 v -3.21341 h 12.842455 v 3.21341 h -4.814521 z" style="stroke-width:0.26458332" id="path831" />
            <path d="m 42.881786,291.73355 q 0.179145,0.056 0.35829,0.0784 0.179145,0.0112 0.35829,0.0112 0.447862,0 0.862135,-0.12317 0.414273,-0.12316 0.772563,-0.34709 0.369486,-0.23513 0.6494,-0.55983 0.291111,-0.33589 0.470256,-0.73897 l 2.239312,2.25051 q -0.42547,0.60461 -0.985298,1.08607 -0.548631,0.48145 -1.198032,0.81734 -0.638204,0.3359 -1.354783,0.50385 -0.705384,0.17914 -1.455553,0.17914 -1.265212,0 -2.384868,-0.47025 -1.108459,-0.47026 -1.948201,-1.31 -0.828546,-0.83974 -1.309998,-1.99299 -0.481452,-1.16444 -0.481452,-2.55281 0,-1.42197 0.481452,-2.5976 0.481452,-1.17564 1.309998,-2.00419 0.839742,-0.82854 1.948201,-1.2876 1.119656,-0.45906 2.384868,-0.45906 0.750169,0 1.466749,0.17914 0.71658,0.17915 1.354784,0.51504 0.6494,0.3359 1.209228,0.82855 0.559828,0.48145 0.985298,1.08607 z m 1.567518,-6.30366 q -0.212734,-0.0784 -0.425469,-0.10077 -0.201538,-0.0224 -0.425469,-0.0224 -0.627008,0 -1.186836,0.23513 -0.548631,0.22393 -0.962904,0.6494 -0.403076,0.42547 -0.638204,1.03008 -0.235128,0.59342 -0.235128,1.34359 0,0.16795 0.0112,0.38068 0.02239,0.21274 0.05598,0.43667 0.04479,0.21273 0.100769,0.41427 0.05598,0.20154 0.145555,0.35829 z" style="stroke-width:0.26458332" id="path833" />
            <path d="m 56.743127,294.66705 h -6.986653 v -3.04546 h 6.986653 q 0.313504,0 0.537435,-0.22393 0.223931,-0.22393 0.223931,-0.53744 0,-0.3247 -0.223931,-0.42547 -0.223931,-0.10077 -0.537435,-0.10077 h -3.179823 q -0.794956,0 -1.489142,-0.3023 -0.694187,-0.30231 -1.209229,-0.81735 -0.515042,-0.52624 -0.817349,-1.22043 -0.29111,-0.69418 -0.29111,-1.48914 0,-0.79495 0.29111,-1.48914 0.302307,-0.69419 0.817349,-1.20923 0.515042,-0.51504 1.209229,-0.80615 0.694186,-0.30231 1.489142,-0.30231 h 6.191698 v 3.04546 h -6.191698 q -0.313503,0 -0.537435,0.22394 -0.223931,0.22393 -0.223931,0.53743 0,0.3247 0.223931,0.55983 0.223932,0.22393 0.537435,0.22393 h 3.179823 q 0.78376,0 1.477946,0.26872 0.694187,0.25752 1.209229,0.72777 0.515042,0.47026 0.817349,1.13086 0.302307,0.66059 0.302307,1.44435 0,0.79496 -0.302307,1.48915 -0.302307,0.68299 -0.817349,1.20922 -0.515042,0.51505 -1.209229,0.81735 -0.694186,0.29111 -1.477946,0.29111 z" style="stroke-width:0.26458332" id="path835" />
            <path d="m 68.174817,294.66705 q -1.10846,0 -2.08256,-0.41427 -0.974101,-0.42547 -1.713074,-1.15325 -0.727776,-0.73897 -1.153246,-1.71307 -0.414272,-0.9741 -0.414272,-2.08256 v -3.56051 h -1.489143 v -3.04546 h 1.489143 v -4.79213 h 3.045464 v 4.79213 h 4.635376 v 3.04546 h -4.635376 v 3.56051 q 0,0.48145 0.179145,0.90692 0.179145,0.41427 0.492649,0.72778 0.313503,0.3135 0.738973,0.50384 0.425469,0.17915 0.906921,0.17915 h 2.317688 v 3.04546 z" style="stroke-width:0.26458332" id="path837" />
            <path d="m 76.964115,291.73355 q 0.179145,0.056 0.35829,0.0784 0.179145,0.0112 0.35829,0.0112 0.447862,0 0.862135,-0.12317 0.414272,-0.12316 0.772562,-0.34709 0.369487,-0.23513 0.649401,-0.55983 0.29111,-0.33589 0.470255,-0.73897 l 2.239312,2.25051 q -0.425469,0.60461 -0.985297,1.08607 -0.548631,0.48145 -1.198032,0.81734 -0.638204,0.3359 -1.354784,0.50385 -0.705383,0.17914 -1.455552,0.17914 -1.265212,0 -2.384868,-0.47025 -1.108459,-0.47026 -1.948201,-1.31 -0.828546,-0.83974 -1.309998,-1.99299 -0.481452,-1.16444 -0.481452,-2.55281 0,-1.42197 0.481452,-2.5976 0.481452,-1.17564 1.309998,-2.00419 0.839742,-0.82854 1.948201,-1.2876 1.119656,-0.45906 2.384868,-0.45906 0.750169,0 1.466749,0.17914 0.71658,0.17915 1.354784,0.51504 0.6494,0.3359 1.209228,0.82855 0.559828,0.48145 0.985298,1.08607 z m 1.567518,-6.30366 q -0.212735,-0.0784 -0.425469,-0.10077 -0.201538,-0.0224 -0.425469,-0.0224 -0.627008,0 -1.186836,0.23513 -0.548631,0.22393 -0.962904,0.6494 -0.403076,0.42547 -0.638204,1.03008 -0.235128,0.59342 -0.235128,1.34359 0,0.16795 0.0112,0.38068 0.02239,0.21274 0.05598,0.43667 0.04479,0.21273 0.100769,0.41427 0.05598,0.20154 0.145555,0.35829 z" style="stroke-width:0.26458332" id="path839" />
            <path d="m 87.298538,294.66705 h -3.056661 v -11.99151 h 0.738973 l 1.00769,1.42196 q 0.738973,-0.67179 1.679484,-1.03008 0.940511,-0.36949 1.948202,-0.36949 h 2.698371 v 3.04546 h -2.698371 q -0.481452,0 -0.906922,0.17915 -0.425469,0.17914 -0.738973,0.49265 -0.313503,0.3135 -0.492648,0.73897 -0.179145,0.42547 -0.179145,0.90692 z" style="stroke-width:0.26458332" id="path841" />
            <path d="m 102.45868,293.26748 q -0.36948,0.3359 -0.79495,0.63821 -0.41428,0.29111 -0.87333,0.51504 -0.45906,0.21273 -0.951712,0.3359 -0.481452,0.13435 -0.985297,0.13435 -1.10846,0 -2.082561,-0.39188 -0.9741,-0.39187 -1.713073,-1.10845 -0.727777,-0.72778 -1.153246,-1.75786 -0.414273,-1.04128 -0.414273,-2.32889 v -6.62836 h 3.045465 v 6.62836 q 0,0.60462 0.179145,1.08607 0.190341,0.47025 0.503845,0.79495 0.313503,0.3247 0.727776,0.49265 0.425469,0.16795 0.906922,0.16795 0.470255,0 0.884528,-0.21273 0.425471,-0.22394 0.738971,-0.58223 0.31351,-0.35829 0.49265,-0.80615 0.17915,-0.45906 0.17915,-0.94051 v -6.62836 h 3.05666 v 11.99151 h -0.73898 z" style="stroke-width:0.26458332" id="path843" />
            <path d="m 121.79514,294.66705 h -3.04546 v -7.61366 q 0,-0.3135 -0.12316,-0.59342 -0.11197,-0.27991 -0.3247,-0.49264 -0.21274,-0.21274 -0.49265,-0.3247 -0.27992,-0.12317 -0.59342,-0.12317 -0.3135,0 -0.59342,0.12317 -0.26872,0.11196 -0.48145,0.3247 -0.20154,0.21273 -0.3247,0.49264 -0.11197,0.27992 -0.11197,0.59342 v 7.61366 h -3.05666 v -7.61366 q 0,-0.3135 -0.12316,-0.59342 -0.11196,-0.27991 -0.3247,-0.49264 -0.21273,-0.21274 -0.49265,-0.3247 -0.27991,-0.12317 -0.59342,-0.12317 -0.3135,0 -0.59341,0.12317 -0.26872,0.11196 -0.48146,0.3247 -0.20153,0.21273 -0.3247,0.49264 -0.11196,0.27992 -0.11196,0.59342 v 7.61366 h -3.05666 v -11.99151 h 0.73897 l 0.82855,0.91812 q 0.6382,-0.53744 1.39957,-0.82855 0.77256,-0.30231 1.6011,-0.30231 0.83975,0 1.6347,0.31351 0.80615,0.3135 1.41077,1.08606 0.27991,-0.38068 0.6382,-0.6494 0.35829,-0.26872 0.75017,-0.43666 0.40308,-0.16795 0.82855,-0.23513 0.42547,-0.0784 0.83974,-0.0784 0.95171,0 1.78025,0.35829 0.83974,0.35829 1.45556,0.9853 0.627,0.61581 0.98529,1.45555 0.35829,0.83974 0.35829,1.79145 z" style="stroke-width:0.26458332" id="path845" />
        </g>
        <g aria-label="»" style="font-style:normal;font-variant:normal;font-weight:bold;font-stretch:normal;font-size:42.58380508px;line-height:1.25;font-family:FreeMono;-inkscape-font-specification:'FreeMono, Bold';font-variant-ligatures:normal;font-variant-caps:normal;font-variant-numeric:normal;font-feature-settings:normal;text-align:start;letter-spacing:0px;word-spacing:0px;writing-mode:lr-tb;text-anchor:start;display:inline;fill:#ff9800;fill-opacity:1;stroke:none;stroke-width:0.26458332" id="text3865">
            <path d="m 139.48971,286.71201 -6.43016,-6.00431 q -0.68134,-0.63876 -0.68134,-1.14977 0,-0.511 0.42584,-0.89426 0.42584,-0.38325 0.97943,-0.38325 0.46842,0 1.19235,0.55359 l 10.5182,7.878 -10.5182,7.83542 q -0.72393,0.55359 -1.23493,0.55359 -0.55359,0 -0.97943,-0.38325 -0.38326,-0.38326 -0.38326,-0.89426 0,-0.46842 0.68134,-1.14977 z m -9.79428,0 -6.43015,-6.00431 q -0.68134,-0.63876 -0.68134,-1.14977 0,-0.511 0.42584,-0.89426 0.42583,-0.38325 0.97942,-0.38325 0.46843,0 1.19235,0.55359 l 10.5182,7.878 -10.5182,7.83542 q -0.72392,0.55359 -1.23493,0.55359 -0.55359,0 -0.97943,-0.38325 -0.38325,-0.38326 -0.38325,-0.89426 0,-0.46842 0.68134,-1.14977 z" style="font-style:normal;font-variant:normal;font-weight:bold;font-stretch:normal;font-size:42.58380508px;font-family:FreeMono;-inkscape-font-specification:'FreeMono, Bold';font-variant-ligatures:normal;font-variant-caps:normal;font-variant-numeric:normal;font-feature-settings:normal;text-align:start;writing-mode:lr-tb;text-anchor:start;stroke-width:0.26458332" id="path848" />
        </g>
    </g>
</svg>
